<?xml version="1.0" encoding="UTF-8"?>
<svg width="51.981mm" height="65.06mm" version="1.1" viewBox="0 0 47.981 65.06" xmlns="http://www.w3.org/2000/svg" xmlns:xlink="http://www.w3.org/1999/xlink">
 <defs>
  <clipPath id="clipPath91">
   <path d="m336.64 1727.2 60.234-7.12 25.965 54.82 58.746-15.08 33.035 50.87 56.215-22.78 39.523 46.01 52.676-30.07 45.301 40.34 48.199-36.83 50.274 33.94 42.859-42.92 54.348 26.93 36.758-48.24 57.453 19.45 29.997-52.72 59.53 11.62 22.71-56.25 60.55 3.58 15.01-58.77 60.48-4.52 7.04-60.25 59.34-12.54-1.05-60.65 57.14-20.34-9.12-59.97 53.92-27.77-17.04-58.22 49.73-34.71-24.64-55.42 44.66-41.04-31.81-51.64 38.8-46.63-38.41-46.94 32.24-51.38-44.33-41.398 25.1-55.223-49.45-35.117 17.52-58.07-53.69-28.231 9.62-59.882-56.97-20.821 1.55-60.629-59.23-13.027-6.55-60.312-60.44-5.02-14.52-58.891-60.58 3.082-22.24-56.429-59.63 11.129-29.56-52.969-57.615 18.976-36.355-48.546-54.571 26.48-42.504-43.273-50.55 33.523-47.895-37.211-45.633 39.949-52.425-30.5-39.903 45.692-56.023-23.25-33.453 50.597-58.621-15.57-26.414 54.602-60.176-7.61-18.899 57.629-60.652 0.481-11.047 59.64-60.047 8.551-3 60.578-58.375 16.481 5.102 60.441-55.653 24.117 13.109 59.223-51.941 31.32 20.887 56.938-47.309 37.961 28.293 53.649-41.824 43.93 35.191 49.4-35.598 49.12 41.461 44.27-28.734 53.41 46.992 38.35-21.356 56.77 51.684 31.75-13.598 59.11 55.453 24.57-5.601 60.4 58.234 16.96 2.5 60.6 59.977 9.05 10.558 59.73 60.645 0.97z"/>
  </clipPath>
  <radialGradient id="radialGradient99" cx="0" cy="0" r="1" gradientTransform="matrix(736.89 0 0 -736.89 736.74 1107.2)" gradientUnits="userSpaceOnUse">
   <stop stop-color="#3b3d41" offset="0"/>
   <stop stop-color="#3b3d41" offset=".33902"/>
   <stop stop-color="#171518" offset="1"/>
  </radialGradient>
  <clipPath id="clipPath151">
   <path d="m2065.4 1727.2 60.23-7.12 25.96 54.82 58.75-15.08 33.04 50.87 56.21-22.78 39.52 46.01 52.68-30.07 45.3 40.34 48.2-36.83 50.27 33.94 42.87-42.92 54.34 26.93 36.76-48.24 57.45 19.45 30-52.72 59.54 11.62 22.7-56.25 60.55 3.58 15.01-58.77 60.48-4.52 7.04-60.25 59.34-12.54-1.05-60.65 57.14-20.34-9.12-59.97 53.92-27.77-17.04-58.22 49.73-34.71-24.64-55.42 44.67-41.04-31.82-51.64 38.8-46.63-38.41-46.94 32.24-51.38-44.33-41.398 25.1-55.223-49.45-35.117 17.52-58.07-53.69-28.231 9.62-59.882-56.97-20.821 1.55-60.629-59.23-13.027-6.55-60.312-60.44-5.02-14.52-58.891-60.58 3.082-22.24-56.429-59.63 11.129-29.56-52.969-57.61 18.976-36.36-48.546-54.57 26.48-42.5-43.273-50.56 33.523-47.89-37.211-45.63 39.949-52.43-30.5-39.9 45.692-56.02-23.25-33.46 50.597-58.62-15.57-26.41 54.602-60.18-7.61-18.89 57.629-60.66 0.481-11.04 59.64-60.05 8.551-3 60.578-58.38 16.481 5.11 60.441-55.66 24.117 13.11 59.223-51.94 31.32 20.89 56.938-47.31 37.961 28.29 53.649-41.82 43.93 35.19 49.4-35.6 49.12 41.46 44.27-28.73 53.41 46.99 38.35-21.36 56.77 51.69 31.75-13.6 59.11 55.45 24.57-5.6 60.4 58.24 16.96 2.5 60.6 59.97 9.05 10.56 59.73 60.65 0.97z"/>
  </clipPath>
  <radialGradient id="radialGradient159" cx="0" cy="0" r="1" gradientTransform="matrix(736.89 0 0 -736.89 2465.5 1107.2)" gradientUnits="userSpaceOnUse">
   <stop stop-color="#3b3d41" offset="0"/>
   <stop stop-color="#3b3d41" offset=".33902"/>
   <stop stop-color="#171518" offset="1"/>
  </radialGradient>
  <radialGradient id="radialGradient1567" cx="0" cy="0" r="1" gradientTransform="matrix(736.89 0 0 -736.89 2465.5 1107.2)" gradientUnits="userSpaceOnUse" xlink:href="#radialGradient159"/>
 </defs>
 <g transform="translate(-33.03 -221.73)">
  <path d="m121.03 115.16-5.9046-1.4855c-1.1436-0.28787-2.3628-0.28787-3.5066 0l-5.9045 1.4855c-0.6259 0.15737-1.2558-0.23565-1.2558-0.78383v-19.897h17.827v19.897c0 0.54818-0.62992 0.9412-1.2558 0.78383" fill="#fab423"/>
  <g fill="none" stroke="#fff9fa" stroke-miterlimit="10" stroke-width=".1975">
   <path d="m121.35 94.596v0.45226"/>
   <path d="m121.35 95.94v18.441c0 0.0303-0.0379 0.0339-0.0383 0.0339-4e-3 0-8e-3 -6.9e-4 -0.0131-2e-3l-5.9045-1.4855c-0.65649-0.1655-1.3368-0.24901-2.0221-0.24901-0.68516 0-1.3656 0.0835-2.022 0.24901l-5.9046 1.4855c-5e-3 1e-3 -0.01 2e-3 -0.0132 2e-3 -0.0103 0-0.0211-6e-3 -0.0273-0.0109-9e-3 -7e-3 -0.0109-0.0135-0.0109-0.023v-18.887" stroke-dasharray="0.972869, 0.972869"/>
   <path d="m105.39 95.049v-0.45226"/>
  </g>
  <g transform="matrix(.035278 0 0 -.035278 87.298 115.2)">
   <g clip-path="url(#clipPath91)">
    <path d="m336.64 1727.2 60.234-7.12 25.965 54.82 58.746-15.08 33.035 50.87 56.215-22.78 39.523 46.01 52.676-30.07 45.301 40.34 48.199-36.83 50.274 33.94 42.859-42.92 54.348 26.93 36.758-48.24 57.453 19.45 29.997-52.72 59.53 11.62 22.71-56.25 60.55 3.58 15.01-58.77 60.48-4.52 7.04-60.25 59.34-12.54-1.05-60.65 57.14-20.34-9.12-59.97 53.92-27.77-17.04-58.22 49.73-34.71-24.64-55.42 44.66-41.04-31.81-51.64 38.8-46.63-38.41-46.94 32.24-51.38-44.33-41.398 25.1-55.223-49.45-35.117 17.52-58.07-53.69-28.231 9.62-59.882-56.97-20.821 1.55-60.629-59.23-13.027-6.55-60.312-60.44-5.02-14.52-58.891-60.58 3.082-22.24-56.429-59.63 11.129-29.56-52.969-57.615 18.976-36.355-48.546-54.571 26.48-42.504-43.273-50.55 33.523-47.895-37.211-45.633 39.949-52.425-30.5-39.903 45.692-56.023-23.25-33.453 50.597-58.621-15.57-26.414 54.602-60.176-7.61-18.899 57.629-60.652 0.481-11.047 59.64-60.047 8.551-3 60.578-58.375 16.481 5.102 60.441-55.653 24.117 13.109 59.223-51.941 31.32 20.887 56.938-47.309 37.961 28.293 53.649-41.824 43.93 35.191 49.4-35.598 49.12 41.461 44.27-28.734 53.41 46.992 38.35-21.356 56.77 51.684 31.75-13.598 59.11 55.453 24.57-5.601 60.4 58.234 16.96 2.5 60.6 59.977 9.05 10.558 59.73 60.645 0.97 18.422 57.79" fill="url(#radialGradient99)"/>
   </g>
  </g>
  <g fill="none" stroke="#f1db3e" stroke-linecap="round" stroke-linejoin="round" stroke-miterlimit="10" stroke-width=".70556">
   <path d="m122.71 62.853v2.5576"/>
   <path d="m121.43 64.131h2.5575"/>
   <path d="m102.31 67.372 1.8084 1.8083"/>
   <path d="m102.31 69.181 1.8084-1.8083"/>
   <path d="m106.42 60.295c0-0.87665 0.71064-1.5875 1.5875-1.5875 0.87669 0 1.5875 0.71085 1.5875 1.5875 0 0.87666-0.71081 1.5875-1.5875 1.5875-0.87686 0-1.5875-0.71084-1.5875-1.5875z"/>
  </g>
  <path d="m117.57 70.828 8.8548 1.6817-6.287 6.4583 1.1367 8.9412-8.0848-3.9836-8.1522 3.8443 1.2901-8.9204-6.1751-6.5652 8.8821-1.5296 4.3358-7.9015 4.1996 7.9749" fill="#f1db3e"/>
  <g fill="#fab423">
   <path d="m113.37 62.853-4.3358 7.9015 4.2539 5.3876z"/>
   <path d="m100.15 72.284 6.1751 6.5652 6.9609-2.7072z"/>
   <path d="m105.04 87.769 8.1522-3.8443 0.0988-7.7833z"/>
   <path d="m121.27 87.909-7.986-11.767 6.8493 2.8258z"/>
   <path d="m117.57 70.828-4.2815 5.3142 13.136-3.6326z"/>
  </g>
  <path d="m64.678 286.76-5.9048-1.4855c-1.1437-0.28787-2.3626-0.28787-3.5063 0l-5.9048 1.4855c-0.62583 0.15737-1.2559-0.23565-1.2559-0.78383v-19.897h17.828v19.897c0 0.54818-0.63006 0.9412-1.2559 0.78383" fill="#dce0e3"/>
  <g fill="none" stroke="#fff9fa" stroke-miterlimit="10" stroke-width=".1975">
   <path d="m64.998 266.19v0.45226"/>
   <path d="m64.998 267.53v18.441c0 0.0303-0.0378 0.0339-0.0381 0.0339-4e-3 0-8e-3 -6.9e-4 -0.0131-2e-3l-5.9048-1.4855c-0.65652-0.1655-1.3367-0.24901-2.0218-0.24901-0.68545 0-1.366 0.0835-2.0221 0.24901l-5.9048 1.4855c-0.0049 1e-3 -0.0095 2e-3 -0.01305 2e-3 -0.01023 0-0.02117-6e-3 -0.02716-0.0109-0.0092-7e-3 -0.01094-0.0135-0.01094-0.023v-18.887" stroke-dasharray="0.972869, 0.972869"/>
   <path d="m49.042 266.64v-0.45226"/>
  </g>
  <g transform="matrix(.035278 0 0 -.035278 -29.956 286.79)">
   <g clip-path="url(#clipPath151)">
    <path d="m2065.4 1727.2 60.23-7.12 25.96 54.82 58.75-15.08 33.04 50.87 56.21-22.78 39.52 46.01 52.68-30.07 45.3 40.34 48.2-36.83 50.27 33.94 42.87-42.92 54.34 26.93 36.76-48.24 57.45 19.45 30-52.72 59.54 11.62 22.7-56.25 60.55 3.58 15.01-58.77 60.48-4.52 7.04-60.25 59.34-12.54-1.05-60.65 57.14-20.34-9.12-59.97 53.92-27.77-17.04-58.22 49.73-34.71-24.64-55.42 44.67-41.04-31.82-51.64 38.8-46.63-38.41-46.94 32.24-51.38-44.33-41.398 25.1-55.223-49.45-35.117 17.52-58.07-53.69-28.231 9.62-59.882-56.97-20.821 1.55-60.629-59.23-13.027-6.55-60.312-60.44-5.02-14.52-58.891-60.58 3.082-22.24-56.429-59.63 11.129-29.56-52.969-57.61 18.976-36.36-48.546-54.57 26.48-42.5-43.273-50.56 33.523-47.89-37.211-45.63 39.949-52.43-30.5-39.9 45.692-56.02-23.25-33.46 50.597-58.62-15.57-26.41 54.602-60.18-7.61-18.89 57.629-60.66 0.481-11.04 59.64-60.05 8.551-3 60.578-58.38 16.481 5.11 60.441-55.66 24.117 13.11 59.223-51.94 31.32 20.89 56.938-47.31 37.961 28.29 53.649-41.82 43.93 35.19 49.4-35.6 49.12 41.46 44.27-28.73 53.41 46.99 38.35-21.36 56.77 51.69 31.75-13.6 59.11 55.45 24.57-5.6 60.4 58.24 16.96 2.5 60.6 59.97 9.05 10.56 59.73 60.65 0.97 18.42 57.79" fill="url(#radialGradient1567)"/>
   </g>
  </g>
  <g fill="none" stroke="#fff" stroke-linecap="round" stroke-linejoin="round" stroke-miterlimit="10" stroke-width=".70556">
   <path d="m52.894 231.13v2.5576"/>
   <path d="m51.616 232.41h2.5576"/>
   <path d="m48.394 237.69-1.8083 1.8083"/>
   <path d="m46.586 237.69 1.8083 1.8083"/>
   <path d="m63.832 235.73c0-0.87665 0.71085-1.5875 1.5875-1.5875s1.5875 0.71085 1.5875 1.5875c0 0.87666-0.71085 1.5875-1.5875 1.5875s-1.5875-0.71084-1.5875-1.5875z"/>
  </g>
  <path d="m61.301 242.42 8.8547 1.6817-6.2869 6.4583 1.1366 8.9412-8.085-3.9836-8.152 3.8443 1.2901-8.9204-6.175-6.5652 8.8819-1.5296 4.336-7.9015 4.1995 7.9749" fill="#fff"/>
  <g fill="#dce0e3">
   <path d="m57.102 234.45-4.336 7.9015 4.2541 5.3876z"/>
   <path d="m43.884 243.88 6.175 6.5652 6.961-2.7072z"/>
   <path d="m48.769 259.36 8.152-3.8443 0.09913-7.7833z"/>
   <path d="m65.006 259.5-7.9858-11.767 6.8492 2.8258z"/>
   <path d="m61.301 242.42-4.2813 5.3142 13.136-3.6326z"/>
   <path d="m64.678 286.76-5.9048-1.4855c-1.1437-0.28787-2.3626-0.28787-3.5063 0l-5.9048 1.4855c-0.62583 0.15737-1.2559-0.23565-1.2559-0.78383v-19.897h17.828v19.897c0 0.54818-0.63006 0.9412-1.2559 0.78383"/>
  </g>
  <g fill="none" stroke="#fff9fa" stroke-miterlimit="10" stroke-width=".1975">
   <path d="m64.998 266.19v0.45226"/>
   <path d="m64.998 267.53v18.441c0 0.0303-0.0378 0.0339-0.0381 0.0339-4e-3 0-8e-3 -6.9e-4 -0.0131-2e-3l-5.9048-1.4855c-0.65652-0.1655-1.3367-0.24901-2.0218-0.24901-0.68545 0-1.366 0.0835-2.0221 0.24901l-5.9048 1.4855c-0.0049 1e-3 -0.0095 2e-3 -0.01305 2e-3 -0.01023 0-0.02117-6e-3 -0.02716-0.0109-0.0092-7e-3 -0.01094-0.0135-0.01094-0.023v-18.887" stroke-dasharray="0.972869, 0.972869"/>
   <path d="m49.042 266.64v-0.45226"/>
  </g>
  <g transform="matrix(.035278 0 0 -.035278 -29.956 286.79)">
   <g clip-path="url(#clipPath151)">
    <path d="m2065.4 1727.2 60.23-7.12 25.96 54.82 58.75-15.08 33.04 50.87 56.21-22.78 39.52 46.01 52.68-30.07 45.3 40.34 48.2-36.83 50.27 33.94 42.87-42.92 54.34 26.93 36.76-48.24 57.45 19.45 30-52.72 59.54 11.62 22.7-56.25 60.55 3.58 15.01-58.77 60.48-4.52 7.04-60.25 59.34-12.54-1.05-60.65 57.14-20.34-9.12-59.97 53.92-27.77-17.04-58.22 49.73-34.71-24.64-55.42 44.67-41.04-31.82-51.64 38.8-46.63-38.41-46.94 32.24-51.38-44.33-41.398 25.1-55.223-49.45-35.117 17.52-58.07-53.69-28.231 9.62-59.882-56.97-20.821 1.55-60.629-59.23-13.027-6.55-60.312-60.44-5.02-14.52-58.891-60.58 3.082-22.24-56.429-59.63 11.129-29.56-52.969-57.61 18.976-36.36-48.546-54.57 26.48-42.5-43.273-50.56 33.523-47.89-37.211-45.63 39.949-52.43-30.5-39.9 45.692-56.02-23.25-33.46 50.597-58.62-15.57-26.41 54.602-60.18-7.61-18.89 57.629-60.66 0.481-11.04 59.64-60.05 8.551-3 60.578-58.38 16.481 5.11 60.441-55.66 24.117 13.11 59.223-51.94 31.32 20.89 56.938-47.31 37.961 28.29 53.649-41.82 43.93 35.19 49.4-35.6 49.12 41.46 44.27-28.73 53.41 46.99 38.35-21.36 56.77 51.69 31.75-13.6 59.11 55.45 24.57-5.6 60.4 58.24 16.96 2.5 60.6 59.97 9.05 10.56 59.73 60.65 0.97 18.42 57.79" fill="url(#radialGradient1567)"/>
   </g>
  </g>
  <g fill="none" stroke="#fff" stroke-linecap="round" stroke-linejoin="round" stroke-miterlimit="10" stroke-width=".70556">
   <path d="m52.894 231.13v2.5576"/>
   <path d="m51.616 232.41h2.5576"/>
   <path d="m48.394 237.69-1.8083 1.8083"/>
   <path d="m46.586 237.69 1.8083 1.8083"/>
   <path d="m63.832 235.73c0-0.87665 0.71085-1.5875 1.5875-1.5875s1.5875 0.71085 1.5875 1.5875c0 0.87666-0.71085 1.5875-1.5875 1.5875s-1.5875-0.71084-1.5875-1.5875z"/>
  </g>
  <path d="m61.301 242.42 8.8547 1.6817-6.2869 6.4583 1.1366 8.9412-8.085-3.9836-8.152 3.8443 1.2901-8.9204-6.175-6.5652 8.8819-1.5296 4.336-7.9015 4.1995 7.9749" fill="#fff"/>
  <g fill="#dce0e3">
   <path d="m57.102 234.45-4.336 7.9015 4.2541 5.3876z"/>
   <path d="m43.884 243.88 6.175 6.5652 6.961-2.7072z"/>
   <path d="m48.769 259.36 8.152-3.8443 0.09913-7.7833z"/>
   <path d="m65.006 259.5-7.9858-11.767 6.8492 2.8258z"/>
   <path d="m61.301 242.42-4.2813 5.3142 13.136-3.6326z"/>
  </g>
 </g>
</svg>
